<svg width="70" height="70" viewBox="0 0 70 70" fill="none" xmlns="http://www.w3.org/2000/svg">
<circle cx="35" cy="35" r="35" fill="#99353D"/>
<path d="M50.6406 48.1469C50.65 48.133 50.6639 48.119 50.6733 48.105C53.7261 44.4742 55.5625 39.7947 55.5625 34.6817C55.5625 29.5687 53.7261 24.8892 50.6779 21.2584C50.6686 21.2444 50.6546 21.2351 50.6453 21.2211C50.594 21.1605 50.5474 21.1046 50.4961 21.0487C50.4775 21.0254 50.4589 21.0067 50.4402 20.9834L50.2491 20.7644L50.2445 20.7597C50.1745 20.6805 50.1 20.6012 50.0301 20.522L50.0254 20.5173C49.8763 20.3589 49.7271 20.2004 49.5733 20.0466L49.5686 20.0419L49.3449 19.8182L49.3309 19.8042C49.261 19.7343 49.1911 19.6691 49.1212 19.6038C49.0979 19.5805 49.0746 19.5572 49.0466 19.5339C49 19.4873 48.9534 19.4453 48.9068 19.4034C48.8928 19.3894 48.8742 19.3754 48.8602 19.3568C45.1408 15.9077 40.1583 13.801 34.6818 13.801C29.2053 13.801 24.2228 15.9077 20.4988 19.3568C20.4848 19.3708 20.4662 19.3847 20.4522 19.4034C20.4056 19.4453 20.359 19.4919 20.3124 19.5386C20.2891 19.5619 20.2658 19.5852 20.2378 19.6085C20.1679 19.6737 20.098 19.7436 20.0281 19.8089L20.0141 19.8229L19.7904 20.0466L19.7857 20.0512C19.6319 20.2051 19.4827 20.3635 19.3336 20.522L19.3289 20.5267C19.2544 20.6059 19.1844 20.6851 19.1145 20.7644L19.1099 20.769C19.0446 20.8389 18.9794 20.9135 18.9188 20.9881C18.9001 21.0114 18.8815 21.03 18.8628 21.0533C18.8116 21.1093 18.765 21.1699 18.7137 21.2258C18.7044 21.2398 18.6904 21.2491 18.6811 21.2631C15.6375 24.8892 13.8011 29.5687 13.8011 34.6817C13.8011 39.7947 15.6375 44.4742 18.6857 48.105C18.6951 48.119 18.709 48.133 18.7184 48.1469L18.8628 48.3194C18.8815 48.3427 18.9001 48.3614 18.9188 48.3847L19.1099 48.6037C19.1099 48.6084 19.1145 48.6084 19.1145 48.613C19.1844 48.6923 19.2544 48.7715 19.3289 48.8461L19.3336 48.8507C19.4827 49.0092 19.6319 49.1677 19.781 49.3215L19.7857 49.3261C19.8603 49.4007 19.9302 49.4753 20.0048 49.5452L20.0187 49.5592C20.1726 49.713 20.331 49.8621 20.4895 50.0066C24.2228 53.4557 29.2053 55.5624 34.6818 55.5624C40.1583 55.5624 45.1408 53.4557 48.8648 50.0066C49.0236 49.8611 49.179 49.7119 49.3309 49.5592L49.3449 49.5452C49.4195 49.4706 49.4941 49.4007 49.564 49.3261L49.5686 49.3215C49.7224 49.1677 49.8716 49.0092 50.0161 48.8507L50.0207 48.8461C50.0907 48.7668 50.1652 48.6923 50.2351 48.613C50.2351 48.6084 50.2398 48.6084 50.2398 48.6037C50.3051 48.5338 50.3703 48.4592 50.4309 48.3847C50.4495 48.3614 50.4682 48.3427 50.4868 48.3194C50.5395 48.2632 50.5908 48.2057 50.6406 48.1469ZM50.8317 41.5006C50.1885 43.02 49.3403 44.4276 48.3055 45.7047C47.1402 44.6975 45.8661 43.8237 44.5069 43.0992C45.0476 40.9133 45.3832 38.5129 45.4717 35.9867H52.1601C52.0203 37.893 51.5728 39.7434 50.8317 41.5006ZM52.1601 33.3767H45.4717C45.3832 30.8505 45.0476 28.4501 44.5069 26.2642C45.8726 25.5371 47.145 24.6608 48.3055 23.6588C50.5547 26.4272 51.9002 29.8192 52.1601 33.3767ZM41.5007 18.5318C43.351 19.3148 45.0336 20.3962 46.5158 21.7571C45.6548 22.4902 44.728 23.1424 43.7472 23.7054C43.0155 21.608 42.0786 19.7856 40.988 18.3267C41.1604 18.392 41.3329 18.4619 41.5007 18.5318ZM37.2779 51.1858C36.8491 51.5214 36.4203 51.7778 35.9869 51.9502V43.3043C37.8363 43.4333 39.6549 43.8452 41.3795 44.5255C40.9926 45.672 40.5452 46.73 40.0278 47.6855C39.2169 49.1956 38.266 50.4028 37.2779 51.1858ZM40.0278 21.6779C40.5405 22.638 40.9926 23.696 41.3795 24.838C39.6549 25.5182 37.8363 25.9301 35.9869 26.0591V17.4179C36.4157 17.5903 36.8491 17.842 37.2779 18.1822C38.266 18.9606 39.2169 20.1678 40.0278 21.6779ZM35.9869 40.6896V35.9867H42.8617C42.7871 38.0469 42.5307 40.0464 42.1019 41.9433L42.0879 41.9993C40.1319 41.2575 38.075 40.816 35.9869 40.6896ZM35.9869 33.3767V28.6739C38.1215 28.5433 40.1723 28.0912 42.0879 27.3641L42.1019 27.4201C42.5307 29.317 42.7871 31.3119 42.8617 33.3767H35.9869ZM33.3768 35.9867V40.6896C31.2421 40.8201 29.1913 41.2722 27.2757 41.9993L27.2617 41.9433C26.8329 40.0464 26.5766 38.0515 26.502 35.9867H33.3768ZM26.502 33.3767C26.5766 31.3166 26.8329 29.317 27.2617 27.4201L27.2757 27.3641C29.1913 28.0912 31.2374 28.5433 33.3768 28.6739V33.3767H26.502ZM33.3768 43.3043V51.9456C32.948 51.7731 32.5145 51.5214 32.0857 51.1812C31.0976 50.4028 30.1421 49.191 29.3312 47.6809C28.8185 46.7207 28.3664 45.6627 27.9795 44.5208C29.7133 43.8403 31.5171 43.4348 33.3768 43.3043ZM33.3768 26.0591C31.5274 25.9301 29.7087 25.5182 27.9842 24.838C28.371 23.6914 28.8185 22.6334 29.3358 21.6779C30.1468 20.1678 31.0976 18.9559 32.0904 18.1776C32.5192 17.842 32.948 17.5856 33.3814 17.4132V26.0591H33.3768ZM27.863 18.5318C28.0354 18.4619 28.2032 18.392 28.3757 18.3267C27.285 19.7856 26.3482 21.608 25.6164 23.7054C24.6377 23.1461 23.7101 22.4935 22.8479 21.7571C24.33 20.3962 26.0126 19.3148 27.863 18.5318ZM18.5319 27.8629C19.1751 26.3434 20.0234 24.9358 21.0581 23.6588C22.2187 24.6608 23.4911 25.5371 24.8567 26.2642C24.3161 28.4501 23.9805 30.8505 23.8919 33.3767H17.2036C17.3434 31.4704 17.7908 29.62 18.5319 27.8629ZM17.2036 35.9867H23.8919C23.9805 38.5129 24.3161 40.9133 24.8567 43.0992C23.4975 43.8237 22.2234 44.6975 21.0581 45.7047C18.8089 42.9362 17.4635 39.5442 17.2036 35.9867ZM27.863 50.8316C26.0126 50.0486 24.33 48.9673 22.8479 47.6063C23.7101 46.8699 24.6377 46.222 25.6164 45.658C26.3482 47.7554 27.285 49.5778 28.3757 51.0367C28.2032 50.9714 28.0308 50.9015 27.863 50.8316ZM41.5007 50.8316C41.3282 50.9015 41.1604 50.9714 40.988 51.0367C42.0786 49.5778 43.0155 47.7554 43.7472 45.658C44.726 46.2174 45.6535 46.8699 46.5158 47.6063C45.0418 48.9616 43.3453 50.0527 41.5007 50.8316Z" fill="#FBFBFB"/>
</svg>
