<svg width="70" height="70" viewBox="0 0 70 70" fill="none" xmlns="http://www.w3.org/2000/svg">
<circle cx="35" cy="35" r="35" fill="#99353D"/>
<path d="M49.4102 18.6484H19.9535C19.2118 18.6484 18.5005 18.9431 17.9761 19.4675C17.4516 19.992 17.157 20.7033 17.157 21.445V30.6194C17.1571 31.1561 17.3117 31.6815 17.6023 32.1327C17.8929 32.5839 18.3072 32.942 18.7957 33.1642L31.175 38.7834C29.3836 39.5861 27.9217 40.9791 27.0336 42.7299C26.1455 44.4806 25.8849 46.483 26.2954 48.4027C26.7058 50.3223 27.7624 52.0431 29.2888 53.2776C30.8151 54.5121 32.7188 55.1856 34.6818 55.1856C36.6449 55.1856 38.5486 54.5121 40.0749 53.2776C41.6013 52.0431 42.6579 50.3223 43.0683 48.4027C43.4787 46.483 43.2181 44.4806 42.3301 42.7299C41.442 40.9791 39.9801 39.5861 38.1887 38.7834L50.5679 33.1568C51.0553 32.9351 51.4689 32.5782 51.7594 32.1284C52.0499 31.6786 52.2051 31.1549 52.2067 30.6194V21.445C52.2067 20.7033 51.9121 19.992 51.3876 19.4675C50.8632 18.9431 50.1519 18.6484 49.4102 18.6484ZM41.0206 20.8857V35.0547L34.6818 37.9351L28.3431 35.0547V20.8857H41.0206ZM19.3942 30.6194V21.445C19.3942 21.2966 19.4531 21.1544 19.558 21.0495C19.6629 20.9446 19.8052 20.8857 19.9535 20.8857H26.1058V34.0293L19.7223 31.1284C19.6245 31.084 19.5416 31.0124 19.4834 30.9221C19.4252 30.8319 19.3943 30.7268 19.3942 30.6194ZM41.0206 46.6136C41.0206 47.8673 40.6489 49.0929 39.9523 50.1353C39.2558 51.1777 38.2658 51.9901 37.1076 52.4699C35.9493 52.9497 34.6748 53.0752 33.4452 52.8306C32.2156 52.586 31.0861 51.9823 30.1996 51.0958C29.3132 50.2093 28.7094 49.0799 28.4649 47.8503C28.2203 46.6207 28.3458 45.3462 28.8256 44.1879C29.3053 43.0296 30.1178 42.0396 31.1602 41.3431C32.2026 40.6466 33.4282 40.2749 34.6818 40.2749C36.363 40.2749 37.9753 40.9427 39.164 42.1314C40.3528 43.3202 41.0206 44.9325 41.0206 46.6136ZM49.9695 30.6194C49.9694 30.7268 49.9384 30.8319 49.8803 30.9221C49.8221 31.0124 49.7391 31.084 49.6414 31.1284L43.2578 34.0293V20.8857H49.4102C49.5585 20.8857 49.7008 20.9446 49.8057 21.0495C49.9106 21.1544 49.9695 21.2966 49.9695 21.445V30.6194Z" fill="#FBFBFB"/>
</svg>
