<svg width="70" height="70" viewBox="0 0 70 70" fill="none" xmlns="http://www.w3.org/2000/svg">
<circle cx="35" cy="35" r="35" fill="#99353D"/>
<path d="M56.4177 33.8864L54.3694 31.0426C53.9109 30.3987 53.3056 29.8734 52.6035 29.5103C51.9014 29.1471 51.1229 28.9566 50.3324 28.9546H41.6222V24.6989C41.6222 23.3803 41.0984 22.1158 40.1661 21.1834C39.2337 20.2511 37.9692 19.7273 36.6506 19.7273H22.7898C21.4724 19.731 20.21 20.2559 19.2784 21.1875C18.3469 22.1191 17.8219 23.3815 17.8182 24.6989V44.4659C17.8182 45.2571 18.1325 46.0158 18.6919 46.5752C19.2513 47.1346 20.0101 47.4489 20.8012 47.4489H23.2273C23.3775 48.5129 23.9069 49.4868 24.718 50.1916C25.5292 50.8963 26.5676 51.2843 27.6421 51.2843C28.7166 51.2843 29.755 50.8963 30.5662 50.1916C31.3773 49.4868 31.9067 48.5129 32.0569 47.4489H43.1137C43.2639 48.5129 43.7932 49.4868 44.6044 50.1916C45.4155 50.8963 46.4539 51.2843 47.5285 51.2843C48.603 51.2843 49.6414 50.8963 50.4525 50.1916C51.2637 49.4868 51.7931 48.5129 51.9432 47.4489H54.3694C55.1605 47.4489 55.9192 47.1346 56.4786 46.5752C57.0381 46.0158 57.3523 45.2571 57.3523 44.4659V36.7699C57.3475 35.735 57.0208 34.7273 56.4177 33.8864ZM27.6421 49.2983C27.1505 49.2983 26.6699 49.1525 26.2611 48.8794C25.8523 48.6062 25.5337 48.218 25.3455 47.7638C25.1574 47.3096 25.1082 46.8098 25.2041 46.3276C25.3 45.8454 25.5367 45.4024 25.8844 45.0548C26.232 44.7072 26.6749 44.4704 27.1571 44.3745C27.6393 44.2786 28.1392 44.3278 28.5934 44.5159C29.0476 44.7041 29.4358 45.0227 29.709 45.4315C29.9821 45.8403 30.1279 46.3209 30.1279 46.8125C30.1279 47.4718 29.866 48.1041 29.3998 48.5702C28.9336 49.0364 28.3014 49.2983 27.6421 49.2983ZM39.6336 45.4602H31.9177C31.6281 44.5537 31.0579 43.7626 30.2894 43.2013C29.5208 42.64 28.5938 42.3375 27.6421 42.3375C26.6904 42.3375 25.7634 42.64 24.9948 43.2013C24.2263 43.7626 23.6561 44.5537 23.3665 45.4602H20.8012C20.5375 45.4602 20.2846 45.3555 20.0981 45.169C19.9116 44.9825 19.8069 44.7296 19.8069 44.4659V24.6989C19.8069 23.9078 20.1211 23.149 20.6806 22.5896C21.24 22.0302 21.9987 21.7159 22.7898 21.7159H36.6506C37.4417 21.7159 38.2005 22.0302 38.7599 22.5896C39.3193 23.149 39.6336 23.9078 39.6336 24.6989V45.4602ZM47.5285 49.2983C47.0368 49.2983 46.5562 49.1525 46.1474 48.8794C45.7386 48.6062 45.42 48.218 45.2319 47.7638C45.0437 47.3096 44.9945 46.8098 45.0904 46.3276C45.1863 45.8454 45.4231 45.4024 45.7707 45.0548C46.1184 44.7072 46.5613 44.4704 47.0435 44.3745C47.5257 44.2786 48.0255 44.3278 48.4797 44.5159C48.934 44.7041 49.3222 45.0227 49.5953 45.4315C49.8685 45.8403 50.0143 46.3209 50.0143 46.8125C50.0143 47.4718 49.7524 48.1041 49.2862 48.5702C48.82 49.0364 48.1877 49.2983 47.5285 49.2983ZM55.3637 44.4659C55.3637 44.7296 55.2589 44.9825 55.0725 45.169C54.886 45.3555 54.6331 45.4602 54.3694 45.4602H51.804C51.5145 44.5537 50.9443 43.7626 50.1757 43.2013C49.4072 42.64 48.4802 42.3375 47.5285 42.3375C46.5768 42.3375 45.6497 42.64 44.8812 43.2013C44.1127 43.7626 43.5424 44.5537 43.2529 45.4602H41.6222V30.9432H50.3324C50.8069 30.9464 51.2739 31.0615 51.6955 31.2792C52.1171 31.4969 52.4813 31.811 52.7586 32.196L54.8069 35.0398C55.1648 35.5461 55.3591 36.1499 55.3637 36.7699V44.4659Z" fill="#FBFBFB"/>
<path d="M49.5747 35.9147H45.5975C45.3338 35.9147 45.0808 35.8099 44.8944 35.6234C44.7079 35.437 44.6031 35.1841 44.6031 34.9203C44.6031 34.6566 44.7079 34.4037 44.8944 34.2173C45.0808 34.0308 45.3338 33.926 45.5975 33.926H49.5747C49.8384 33.926 50.0914 34.0308 50.2778 34.2173C50.4643 34.4037 50.5691 34.6566 50.5691 34.9203C50.5691 35.1841 50.4643 35.437 50.2778 35.6234C50.0914 35.8099 49.8384 35.9147 49.5747 35.9147Z" fill="#FBFBFB"/>
</svg>
