<svg width="70" height="70" viewBox="0 0 70 70" fill="none" xmlns="http://www.w3.org/2000/svg">
<circle cx="35" cy="35" r="35" fill="#99353D"/>
<path d="M20.7614 19.9744V38.2391C20.7614 40.8987 22.0906 43.3823 24.3036 44.8577L34.6818 51.7766L45.0601 44.8577C47.2731 43.3823 48.6023 40.8987 48.6023 38.2391V19.9744L34.6818 16.8809L20.7614 19.9744ZM18.3414 16.4379L34.6818 12.8066L51.0223 16.4379C51.9323 16.6401 52.5796 17.4471 52.5796 18.3791V38.2391C52.5796 42.2285 50.5858 45.954 47.2663 48.167L34.6818 56.5566L22.0974 48.167C18.7779 45.954 16.7841 42.2285 16.7841 38.2391V18.3791C16.7841 17.4471 17.4315 16.6401 18.3414 16.4379ZM34.6818 37.6646L28.8374 40.7372L29.9536 34.2292L25.2253 29.6204L31.7595 28.6709L34.6818 22.7498L37.6041 28.6709L44.1384 29.6204L39.41 34.2292L40.5263 40.7372L34.6818 37.6646Z" fill="#FBFBFB"/>
</svg>
